<?xml version="1.0" encoding="UTF-8"?>
<!DOCTYPE svg PUBLIC "-//W3C//DTD SVG 1.1//EN" "http://www.w3.org/Graphics/SVG/1.1/DTD/svg11.dtd">
<!-- Creator: CorelDRAW 2020 (64-Bit) -->
<svg xmlns="http://www.w3.org/2000/svg" xml:space="preserve" width="8.34128in" height="5.8221in" version="1.1" style="shape-rendering:geometricPrecision; text-rendering:geometricPrecision; image-rendering:optimizeQuality; fill-rule:evenodd; clip-rule:evenodd"
viewBox="0 0 1180.48 823.96"
 xmlns:xlink="http://www.w3.org/1999/xlink"
 xmlns:xodm="http://www.corel.com/coreldraw/odm/2003">
 <defs>
  <style type="text/css">
   <![CDATA[
    .str0 {stroke:#848688;stroke-width:1.97;stroke-miterlimit:2.61313}
    .fil2 {fill:none}
    .fil5 {fill:#386B9A}
    .fil3 {fill:#00437E;fill-rule:nonzero}
    .fil1 {fill:#12878E;fill-rule:nonzero}
    .fil0 {fill:#386B9A;fill-rule:nonzero}
    .fil4 {fill:url(#id0)}
   ]]>
  </style>
  <linearGradient id="id0" gradientUnits="userSpaceOnUse" x1="632" y1="440.71" x2="636.62" y2="133.9">
   <stop offset="0" style="stop-opacity:1; stop-color:#386B9A"/>
   <stop offset="1" style="stop-opacity:1; stop-color:#009589"/>
  </linearGradient>
 </defs>
 <g id="Layer_x0020_1">
  <metadata id="CorelCorpID_0Corel-Layer"/>
  <g id="_2925868966512">
   <g>
    <path class="fil0" d="M190.49 546.73l34.29 0 -1.86 -5.59 -15.06 -46.48c-1.15,4.11 -6.31,19.65 -15.49,46.62l-1.86 5.45zm46.05 35.29l-8.46 -25.39 -40.88 0 -8.61 25.39 -12.48 0 33.71 -96.69 16.07 0 33.14 96.69 -12.48 0zm68.91 -36.44l0 -60.25 11.62 0 0 59.97c0,12.43 -3.13,21.85 -9.4,28.26 -6.26,6.41 -14.99,9.61 -26.18,9.61 -11,0 -19.61,-3.13 -25.82,-9.4 -6.22,-6.26 -9.32,-15.37 -9.32,-27.33l0 -61.11 11.62 0 0 60.97c0,8.89 2.13,15.45 6.38,19.65 4.26,4.21 9.97,6.31 17.14,6.31 15.97,0 23.96,-8.89 23.96,-26.68zm239.19 1.15l34.29 0 -1.86 -5.59 -15.06 -46.48c-1.15,4.11 -6.31,19.65 -15.49,46.62l-1.86 5.45zm46.05 35.29l-8.46 -25.39 -40.88 0 -8.61 25.39 -12.48 0 33.71 -96.69 16.07 0 33.14 96.69 -12.48 0zm30.17 -10.47l41.17 0 0 10.47 -52.79 0 0 -96.69 11.62 0 0 86.22zm-244.06 -82.63l0 12.19c-5.83,-3.83 -12.82,-5.74 -20.94,-5.74 -5.83,0 -10.47,1.36 -13.91,4.09 -3.44,2.73 -5.16,6.29 -5.16,10.69 0,2.3 0.45,4.35 1.36,6.17 0.91,1.82 2.51,3.51 4.81,5.09 2.3,1.58 4.26,2.77 5.88,3.59 1.63,0.81 4.16,1.98 7.6,3.51 3.25,1.43 5.74,2.56 7.46,3.37 1.72,0.81 3.94,2.1 6.67,3.87 2.73,1.77 4.78,3.49 6.17,5.16 1.39,1.67 2.63,3.87 3.73,6.6 1.1,2.73 1.65,5.67 1.65,8.82 0,8.51 -2.92,15.09 -8.75,19.73 -5.83,4.64 -13.34,6.96 -22.52,6.96 -10.14,0 -18.75,-2.06 -25.82,-6.17l0 -12.48c6.98,5.26 15.49,7.89 25.54,7.89 6.03,0 10.76,-1.34 14.2,-4.02 3.44,-2.68 5.16,-6.55 5.16,-11.62 0,-2.1 -0.41,-3.99 -1.22,-5.67 -0.81,-1.67 -2.15,-3.2 -4.02,-4.59 -1.86,-1.39 -3.63,-2.53 -5.31,-3.44 -1.67,-0.91 -3.94,-2.03 -6.81,-3.37 -0.57,-0.29 -1.43,-0.67 -2.58,-1.15 -4.11,-1.82 -7.24,-3.3 -9.4,-4.45 -2.15,-1.15 -4.69,-2.85 -7.6,-5.09 -2.92,-2.25 -5.04,-4.85 -6.38,-7.82 -1.34,-2.96 -2.01,-6.41 -2.01,-10.33 0,-8.22 2.94,-14.66 8.82,-19.29 5.88,-4.64 13.27,-6.96 22.16,-6.96 8.32,0 15.4,1.48 21.23,4.45zm69.91 -3.59l0 10.19 -26.11 0 0 86.5 -11.62 0 0 -86.5 -26.11 0 0 -10.19 63.84 0zm15.4 10.04l0 38.59 14.63 0c6.6,0 11.64,-1.79 15.13,-5.38 3.49,-3.59 5.24,-8.2 5.24,-13.84 0,-12.91 -7.22,-19.37 -21.66,-19.37l-13.34 0zm52.65 86.65l-13.92 0 -23.67 -38.16 -1.15 0 -13.92 0 0 38.16 -11.62 0 0 -96.69 24.24 0c11.19,0 19.68,2.63 25.46,7.89 5.79,5.26 8.68,12.53 8.68,21.81 -0.19,6.69 -1.96,12.38 -5.31,17.07 -3.35,4.69 -8.08,7.99 -14.2,9.9l25.39 40.02z"/>
    <path class="fil1" d="M701.74 546.73l34.29 0 -1.86 -5.59 -15.06 -46.48c-1.15,4.11 -6.31,19.65 -15.49,46.62l-1.86 5.45zm46.05 35.29l-8.46 -25.39 -40.88 0 -8.61 25.39 -12.48 0 33.71 -96.69 16.07 0 33.14 96.69 -12.48 0zm69.19 -93.1l0 12.19c-5.83,-3.83 -12.82,-5.74 -20.94,-5.74 -5.83,0 -10.47,1.36 -13.91,4.09 -3.44,2.73 -5.16,6.29 -5.16,10.69 0,2.3 0.45,4.35 1.36,6.17 0.91,1.82 2.51,3.51 4.81,5.09 2.3,1.58 4.26,2.77 5.88,3.59 1.63,0.81 4.16,1.98 7.6,3.51 3.25,1.43 5.74,2.56 7.46,3.37 1.72,0.81 3.94,2.1 6.67,3.87 2.73,1.77 4.78,3.49 6.17,5.16 1.39,1.67 2.63,3.87 3.73,6.6 1.1,2.73 1.65,5.67 1.65,8.82 0,8.51 -2.92,15.09 -8.75,19.73 -5.83,4.64 -13.34,6.96 -22.52,6.96 -10.14,0 -18.75,-2.06 -25.82,-6.17l0 -12.48c6.98,5.26 15.49,7.89 25.54,7.89 6.03,0 10.76,-1.34 14.2,-4.02 3.44,-2.68 5.16,-6.55 5.16,-11.62 0,-2.1 -0.41,-3.99 -1.22,-5.67 -0.81,-1.67 -2.15,-3.2 -4.02,-4.59 -1.86,-1.39 -3.63,-2.53 -5.31,-3.44 -1.67,-0.91 -3.94,-2.03 -6.81,-3.37 -0.57,-0.29 -1.43,-0.67 -2.58,-1.15 -4.11,-1.82 -7.24,-3.3 -9.4,-4.45 -2.15,-1.15 -4.69,-2.85 -7.6,-5.09 -2.92,-2.25 -5.04,-4.85 -6.38,-7.82 -1.34,-2.96 -2.01,-6.41 -2.01,-10.33 0,-8.22 2.94,-14.66 8.82,-19.29 5.88,-4.64 13.27,-6.96 22.16,-6.96 8.32,0 15.4,1.48 21.23,4.45zm15.4 93.1l0 -96.69 11.62 0 0 96.69 -11.62 0zm42.94 -35.29l34.29 0 -1.86 -5.59 -15.06 -46.48c-1.15,4.11 -6.31,19.65 -15.49,46.62l-1.86 5.45zm46.05 35.29l-8.46 -25.39 -40.88 0 -8.61 25.39 -12.48 0 33.71 -96.69 16.07 0 33.14 96.69 -12.48 0zm18.55 0l0 -96.69 14.63 0 24.24 40.74 24.53 41.89c-0.38,-9.28 -0.57,-23.19 -0.57,-41.75l0 -40.89 11.62 0 0 96.69 -14.63 0 -24.24 -40.45c-4.88,-8.13 -9.37,-15.71 -13.48,-22.74 -4.11,-7.03 -7.03,-12.07 -8.75,-15.13l-2.44 -4.45c0.48,9.95 0.72,23.96 0.72,42.03l0 40.74 -11.62 0z"/>
   </g>
   <line class="fil2 str0" x1="165.79" y1="609.79" x2="1014.69" y2= "609.79" />
   <path class="fil3" d="M172.26 642.25l0 17.88 6.78 0c3.06,0 5.39,-0.83 7.01,-2.49 1.62,-1.66 2.43,-3.8 2.43,-6.41 0,-5.98 -3.35,-8.97 -10.04,-8.97l-6.18 0zm24.39 40.15l-6.45 0 -10.97 -17.68 -0.53 0 -6.45 0 0 17.68 -5.38 0 0 -44.8 11.23 0c5.18,0 9.12,1.22 11.8,3.66 2.68,2.44 4.02,5.8 4.02,10.1 -0.09,3.1 -0.91,5.74 -2.46,7.91 -1.55,2.17 -3.74,3.7 -6.58,4.59l11.76 18.54zm36.25 -19.01l0 -1.33c0,-2.79 -0.75,-5.02 -2.26,-6.68 -1.51,-1.66 -3.59,-2.49 -6.25,-2.49 -2.53,0 -4.67,0.91 -6.45,2.73 -1.77,1.82 -2.81,4.41 -3.12,7.78l18.08 0zm3.12 12.36l0 4.92c-2.61,1.37 -5.8,2.06 -9.57,2.06 -5.1,0 -9.21,-1.56 -12.33,-4.69 -3.12,-3.12 -4.69,-7.26 -4.69,-12.4 0,-5.36 1.4,-9.59 4.19,-12.69 2.79,-3.1 6.38,-4.65 10.77,-4.65 4.21,0 7.56,1.35 10.04,4.05 2.48,2.7 3.72,6.54 3.72,11.5 0,1.42 -0.11,2.73 -0.33,3.92l-23 0c0.4,3.32 1.66,5.87 3.79,7.64 2.13,1.77 4.92,2.66 8.37,2.66 3.77,0 6.78,-0.78 9.04,-2.33zm36.85 -25.92l0 4.99c-2.04,-1.24 -4.83,-1.86 -8.37,-1.86 -1.77,0 -3.18,0.41 -4.22,1.23 -1.04,0.82 -1.56,1.87 -1.56,3.16 0,0.8 0.16,1.5 0.47,2.09 0.31,0.6 0.92,1.19 1.83,1.76 0.91,0.58 1.57,0.96 1.99,1.16 0.42,0.2 1.34,0.61 2.76,1.23 2.84,1.15 5.05,2.46 6.65,3.92 1.6,1.46 2.39,3.43 2.39,5.92 0,2.88 -1.01,5.16 -3.02,6.85 -2.02,1.68 -4.77,2.53 -8.28,2.53 -4.08,0 -7.38,-0.69 -9.9,-2.06l0 -5.12c2.97,1.77 6.16,2.66 9.57,2.66 2.04,0 3.59,-0.4 4.65,-1.2 1.06,-0.8 1.6,-1.88 1.6,-3.26 0,-1.6 -0.59,-2.84 -1.76,-3.72 -1.17,-0.89 -3.14,-1.88 -5.88,-2.99 -2.53,-0.98 -4.55,-2.19 -6.08,-3.66 -1.53,-1.46 -2.29,-3.43 -2.29,-5.92 0,-2.79 1.05,-5.02 3.16,-6.68 2.11,-1.66 4.73,-2.49 7.88,-2.49 3.5,0 6.31,0.49 8.44,1.46zm20.9 15.89c0.04,3.63 1.15,6.66 3.32,9.07 2.17,2.42 5.25,3.62 9.24,3.62 2.57,0 4.96,-0.73 7.18,-2.19l0 4.99c-2.13,1.28 -4.74,1.93 -7.84,1.93 -5.32,0 -9.54,-1.69 -12.66,-5.08 -3.12,-3.39 -4.69,-7.52 -4.69,-12.4 0,-4.79 1.56,-8.91 4.69,-12.36 3.12,-3.46 7.39,-5.18 12.79,-5.18 2.88,0 5.45,0.62 7.71,1.86l0 4.99c-2.04,-1.37 -4.43,-2.06 -7.18,-2.06 -3.81,0 -6.86,1.23 -9.14,3.69 -2.28,2.46 -3.42,5.51 -3.42,9.14zm57.19 -17.02l5.25 0 0 33.7 -5.25 0 0 -5.85c-1.77,4.16 -5.29,6.25 -10.57,6.25 -3.32,0 -5.95,-0.99 -7.88,-2.96 -1.93,-1.97 -2.89,-4.62 -2.89,-7.94l0 -23.2 5.25 0 0 21.87c0,2.44 0.62,4.3 1.86,5.58 1.24,1.28 2.92,1.93 5.05,1.93 2.79,0 5.02,-0.97 6.68,-2.92 1.66,-1.95 2.49,-4.59 2.49,-7.91l0 -18.54zm44.82 14.69l0 -1.33c0,-2.79 -0.75,-5.02 -2.26,-6.68 -1.51,-1.66 -3.59,-2.49 -6.25,-2.49 -2.53,0 -4.67,0.91 -6.45,2.73 -1.77,1.82 -2.81,4.41 -3.12,7.78l18.08 0zm3.12 12.36l0 4.92c-2.61,1.37 -5.8,2.06 -9.57,2.06 -5.1,0 -9.21,-1.56 -12.33,-4.69 -3.12,-3.12 -4.69,-7.26 -4.69,-12.4 0,-5.36 1.4,-9.59 4.19,-12.69 2.79,-3.1 6.38,-4.65 10.77,-4.65 4.21,0 7.56,1.35 10.04,4.05 2.48,2.7 3.72,6.54 3.72,11.5 0,1.42 -0.11,2.73 -0.33,3.92l-23 0c0.4,3.32 1.66,5.87 3.79,7.64 2.13,1.77 4.92,2.66 8.37,2.66 3.77,0 6.78,-0.78 9.04,-2.33zm52.87 -8.91l-5.85 0c-2.84,0 -4.96,0.55 -6.38,1.66 -1.42,1.11 -2.13,2.5 -2.13,4.19 0,1.68 0.55,3.05 1.66,4.09 1.11,1.04 2.73,1.56 4.85,1.56 2.39,0 4.3,-0.68 5.72,-2.03 1.42,-1.35 2.13,-3.07 2.13,-5.15l0 -4.32zm-17.41 -11.1l0 -5.25c2.53,-1.55 5.85,-2.33 9.97,-2.33 8.46,0 12.69,4.3 12.69,12.89l0 21.34 -5.18 0 0 -3.99c-1.73,2.88 -4.87,4.32 -9.44,4.32 -3.15,0 -5.68,-0.93 -7.61,-2.79 -1.93,-1.86 -2.89,-4.21 -2.89,-7.04 0,-3.23 1.23,-5.75 3.69,-7.54 2.46,-1.79 5.82,-2.69 10.07,-2.69l6.12 0 0 -1.73c0,-2.66 -0.6,-4.66 -1.79,-6.02 -1.2,-1.35 -3.21,-2.03 -6.05,-2.03 -3.59,0 -6.78,0.95 -9.57,2.86zm45.56 -7.05l0 5.85c1.99,-4.21 5.54,-6.31 10.63,-6.31 3.28,0 5.89,1 7.84,2.99 1.95,1.99 2.92,4.65 2.92,7.98l0 23.2 -5.25 0 0 -21.8c0,-2.48 -0.63,-4.38 -1.89,-5.68 -1.26,-1.31 -2.91,-1.96 -4.95,-1.96 -2.53,0 -4.71,0.98 -6.55,2.92 -1.84,1.95 -2.76,4.65 -2.76,8.11l0 18.41 -5.18 0 0 -33.7 5.18 0zm51.94 29.44c2.75,0 5.08,-1.02 7.01,-3.06 1.93,-2.04 2.89,-5.29 2.89,-9.77 0,-4.25 -1,-7.38 -2.99,-9.37 -1.99,-1.99 -4.19,-2.99 -6.58,-2.99 -2.79,0 -5.11,1.12 -6.95,3.36 -1.84,2.24 -2.76,5.44 -2.76,9.6 0,3.63 0.89,6.58 2.66,8.84 1.77,2.26 4.01,3.39 6.71,3.39zm9.9 -42.74l5.25 0 0 46.99 -5.25 0 0 -4.99c-2.39,3.68 -5.85,5.52 -10.37,5.52 -4.48,0 -7.99,-1.66 -10.53,-4.98 -2.55,-3.32 -3.82,-7.36 -3.82,-12.1 0,-5.27 1.35,-9.54 4.05,-12.79 2.7,-3.26 6.18,-4.89 10.43,-4.89 4.39,0 7.8,1.88 10.24,5.65l0 -18.41zm45.22 6.85l0 17.88 6.78 0c3.06,0 5.39,-0.83 7.01,-2.49 1.62,-1.66 2.43,-3.8 2.43,-6.41 0,-5.98 -3.35,-8.97 -10.04,-8.97l-6.18 0zm24.39 40.15l-6.45 0 -10.97 -17.68 -0.53 0 -6.45 0 0 17.68 -5.38 0 0 -44.8 11.23 0c5.18,0 9.12,1.22 11.8,3.66 2.68,2.44 4.02,5.8 4.02,10.1 -0.09,3.1 -0.91,5.74 -2.46,7.91 -1.55,2.17 -3.74,3.7 -6.58,4.59l11.76 18.54zm36.25 -19.01l0 -1.33c0,-2.79 -0.75,-5.02 -2.26,-6.68 -1.51,-1.66 -3.59,-2.49 -6.25,-2.49 -2.53,0 -4.67,0.91 -6.45,2.73 -1.77,1.82 -2.81,4.41 -3.12,7.78l18.08 0zm3.12 12.36l0 4.92c-2.61,1.37 -5.8,2.06 -9.57,2.06 -5.1,0 -9.21,-1.56 -12.33,-4.69 -3.12,-3.12 -4.69,-7.26 -4.69,-12.4 0,-5.36 1.4,-9.59 4.19,-12.69 2.79,-3.1 6.38,-4.65 10.77,-4.65 4.21,0 7.56,1.35 10.04,4.05 2.48,2.7 3.72,6.54 3.72,11.5 0,1.42 -0.11,2.73 -0.33,3.92l-23 0c0.4,3.32 1.66,5.87 3.79,7.64 2.13,1.77 4.92,2.66 8.37,2.66 3.77,0 6.78,-0.78 9.04,-2.33zm33.33 2.39c2.84,0 5.16,-1.12 6.98,-3.36 1.82,-2.24 2.73,-5.42 2.73,-9.54 0,-3.68 -0.89,-6.65 -2.66,-8.91 -1.77,-2.26 -4.01,-3.39 -6.71,-3.39 -2.7,0 -5.04,0.99 -7.01,2.96 -1.97,1.97 -2.96,5.2 -2.96,9.67 0,4.3 1,7.47 2.99,9.5 1.99,2.04 4.21,3.06 6.65,3.06zm-9.64 -29.44l0 5.12c2.35,-3.77 5.83,-5.65 10.43,-5.65 4.48,0 7.99,1.63 10.53,4.89 2.55,3.26 3.82,7.32 3.82,12.2 0,5.18 -1.34,9.43 -4.02,12.73 -2.68,3.3 -6.17,4.95 -10.47,4.95 -4.43,0 -7.86,-1.88 -10.3,-5.65l0 18.21 -5.18 0 0 -46.79 5.18 0zm59.05 18.15l-5.85 0c-2.84,0 -4.96,0.55 -6.38,1.66 -1.42,1.11 -2.13,2.5 -2.13,4.19 0,1.68 0.55,3.05 1.66,4.09 1.11,1.04 2.73,1.56 4.85,1.56 2.39,0 4.3,-0.68 5.72,-2.03 1.42,-1.35 2.13,-3.07 2.13,-5.15l0 -4.32zm-17.41 -11.1l0 -5.25c2.53,-1.55 5.85,-2.33 9.97,-2.33 8.46,0 12.69,4.3 12.69,12.89l0 21.34 -5.18 0 0 -3.99c-1.73,2.88 -4.87,4.32 -9.44,4.32 -3.15,0 -5.68,-0.93 -7.61,-2.79 -1.93,-1.86 -2.89,-4.21 -2.89,-7.04 0,-3.23 1.23,-5.75 3.69,-7.54 2.46,-1.79 5.82,-2.69 10.07,-2.69l6.12 0 0 -1.73c0,-2.66 -0.6,-4.66 -1.79,-6.02 -1.2,-1.35 -3.21,-2.03 -6.05,-2.03 -3.59,0 -6.78,0.95 -9.57,2.86zm47.62 -2.79l0 19.74c0,3.59 1.68,5.38 5.05,5.38 1.73,0 3.26,-0.51 4.59,-1.53l0 4.98c-1.46,0.8 -3.1,1.2 -4.92,1.2 -6.65,0 -9.97,-3.39 -9.97,-10.17l0 -19.61 -5.38 0 0 -4.25 5.38 0 0 -8.37 5.25 0 0 8.37 9.3 0 0 4.25 -9.3 0zm30.87 -4.25l0 5.92c1.77,-4.16 4.83,-6.25 9.17,-6.25 0.8,0 1.42,0.04 1.86,0.13l0 5.18c-0.93,-0.31 -1.88,-0.47 -2.86,-0.47 -2.35,0 -4.3,1.09 -5.85,3.26 -1.55,2.17 -2.33,4.67 -2.33,7.51l0 18.41 -5.25 0 0.07 -33.7 5.18 0zm25.15 33.7l0 -33.7 5.25 0 0 33.7 -5.25 0zm0.17 -41.84c-0.64,-0.64 -0.96,-1.45 -0.96,-2.43 0,-0.98 0.32,-1.79 0.96,-2.46 0.64,-0.66 1.45,-1 2.43,-1 0.97,0 1.79,0.33 2.46,1 0.66,0.66 1,1.48 1,2.46 0,0.97 -0.33,1.78 -1,2.43 -0.66,0.64 -1.48,0.96 -2.46,0.96 -0.98,0 -1.78,-0.32 -2.43,-0.96zm41.6 26.29l-5.85 0c-2.84,0 -4.96,0.55 -6.38,1.66 -1.42,1.11 -2.13,2.5 -2.13,4.19 0,1.68 0.55,3.05 1.66,4.09 1.11,1.04 2.73,1.56 4.85,1.56 2.39,0 4.3,-0.68 5.72,-2.03 1.42,-1.35 2.13,-3.07 2.13,-5.15l0 -4.32zm-17.41 -11.1l0 -5.25c2.53,-1.55 5.85,-2.33 9.97,-2.33 8.46,0 12.69,4.3 12.69,12.89l0 21.34 -5.18 0 0 -3.99c-1.73,2.88 -4.87,4.32 -9.44,4.32 -3.15,0 -5.68,-0.93 -7.61,-2.79 -1.93,-1.86 -2.89,-4.21 -2.89,-7.04 0,-3.23 1.23,-5.75 3.69,-7.54 2.46,-1.79 5.82,-2.69 10.07,-2.69l6.12 0 0 -1.73c0,-2.66 -0.6,-4.66 -1.79,-6.02 -1.2,-1.35 -3.21,-2.03 -6.05,-2.03 -3.59,0 -6.78,0.95 -9.57,2.86zm47.62 -2.79l0 19.74c0,3.59 1.68,5.38 5.05,5.38 1.73,0 3.26,-0.51 4.59,-1.53l0 4.98c-1.46,0.8 -3.1,1.2 -4.92,1.2 -6.65,0 -9.97,-3.39 -9.97,-10.17l0 -19.61 -5.38 0 0 -4.25 5.38 0 0 -8.37 5.25 0 0 8.37 9.3 0 0 4.25 -9.3 0zm25.95 29.44l0 -33.7 5.25 0 0 33.7 -5.25 0zm0.17 -41.84c-0.64,-0.64 -0.96,-1.45 -0.96,-2.43 0,-0.98 0.32,-1.79 0.96,-2.46 0.64,-0.66 1.45,-1 2.43,-1 0.97,0 1.79,0.33 2.46,1 0.66,0.66 1,1.48 1,2.46 0,0.97 -0.33,1.78 -1,2.43 -0.66,0.64 -1.48,0.96 -2.46,0.96 -0.98,0 -1.78,-0.32 -2.43,-0.96zm37.15 42.44c-4.83,0 -8.65,-1.63 -11.47,-4.89 -2.81,-3.26 -4.22,-7.37 -4.22,-12.33 0,-5.01 1.45,-9.18 4.35,-12.53 2.9,-3.35 6.68,-5.02 11.33,-5.02 5.1,0 9.03,1.64 11.8,4.92 2.77,3.28 4.15,7.44 4.15,12.5 0,5.01 -1.42,9.15 -4.25,12.43 -2.84,3.28 -6.73,4.92 -11.7,4.92zm0 -30.11c-3.19,0 -5.69,1.24 -7.51,3.72 -1.82,2.48 -2.73,5.52 -2.73,9.11 0,3.5 0.93,6.48 2.79,8.94 1.86,2.46 4.34,3.69 7.44,3.69 3.37,0 5.96,-1.21 7.78,-3.62 1.82,-2.41 2.73,-5.42 2.73,-9.01 0,-3.72 -0.86,-6.79 -2.59,-9.21 -1.73,-2.41 -4.36,-3.62 -7.91,-3.62zm37.25 -4.19l0 5.85c1.99,-4.21 5.54,-6.31 10.63,-6.31 3.28,0 5.89,1 7.84,2.99 1.95,1.99 2.92,4.65 2.92,7.98l0 23.2 -5.25 0 0 -21.8c0,-2.48 -0.63,-4.38 -1.89,-5.68 -1.26,-1.31 -2.91,-1.96 -4.95,-1.96 -2.53,0 -4.71,0.98 -6.55,2.92 -1.84,1.95 -2.76,4.65 -2.76,8.11l0 18.41 -5.18 0 0 -33.7 5.18 0z"/>
   <path class="fil4" d="M593.51 443.49c20.49,-22.61 33.88,-64.89 38.32,-114.4 -1.24,-5.14 -3.01,1.61 -3.94,-4.54 6.38,1.36 -0.41,-5.26 -2.21,-7.78 -0.82,-1.15 -1.28,-1.57 -1.21,-3.6 0.12,-3.26 -0.04,-2.92 1.28,-5.03 0.94,0.03 1.25,0.14 1.81,-0.37l3.11 -3.3c0.28,-0.46 1.78,-0.93 2.48,-1.3l0.18 -0.1c1.14,-44.46 -4.59,-92.69 -18.37,-136.75 3.16,0.79 6.32,1.58 9.48,2.37 11.45,43.32 18.22,88.21 17.95,131.51 1.17,-0.38 1.17,-0.8 1.52,-2.07 0.57,-2.07 1.99,-2.99 2.07,-3.93 0.15,-1.67 -0.34,-2.62 1.14,-4.68 1.79,-0.15 1.7,1.82 2.91,2.1 1.17,-0.61 0.64,-1.88 0.51,-3.05 -0.07,-0.62 0.17,-1.09 0.38,-1.63 0.67,-1.72 1.94,-1.18 3.54,-2.35 1.29,-0.94 -0.32,-1.59 1.28,-2.68 0.61,-0.41 1.87,-1.11 2.76,-1.29 2.41,-0.48 3.8,2.12 5.11,2.64l2.73 0.35c0.57,-0.03 0.84,-0.21 0.78,-0.76 -0.06,-0.52 -0.54,-0.63 -0.5,-1.27 0.05,-0.7 2.06,-3.52 2.47,-4.53 0.15,-0.1 0.27,-0.12 0.43,-0.2 4.43,0.84 4.55,-0.84 5.33,-2.08 0.28,-0.44 0.2,0.08 0.2,-0.53 0.34,0.11 0.23,-0.15 0.25,-0.5 -0.07,-1.07 0.51,-1.22 1.14,-1.1 -1.24,-24.41 -5.72,-48.52 -13.34,-70.27 4.54,1.19 7.19,1.88 11.73,3.06 5.61,24.16 9.32,47.21 10.83,68.98 0.51,-0.16 0.78,-0.43 1.38,-0.53 0.79,-0.13 1.18,0.81 1.22,1.58 -0.81,0.87 -0.07,1.88 -1.47,2.75 0.16,0.09 -0.22,0.55 -0.28,0.87 -0.2,-0.08 -0.15,-0.1 -0.15,0.12l-0.13 0.32c-0.04,0.21 -0.13,0.37 -0.23,0.52 0.09,1.68 0.17,3.36 0.23,5.03 0.99,0.8 1.91,1.27 3.11,2.03l2.16 1.17c3.33,1.73 0.86,-0.49 3.7,2.66 0.51,0.56 1.11,0.98 1.88,1.22 0.24,0.07 0.68,0.21 0.97,0.23 1.39,0.09 1.85,-0.98 2.24,-2.11 0.2,-0.58 1.02,-2.9 1.03,-3.33 0.15,-1.13 0.36,-1.77 0.31,-3.21 -0.04,-1.02 -0.28,-2.21 -0,-3.18 0.26,-0.92 2,-3.87 1.84,-5.08 0.22,-0.11 0.23,0.18 0.13,-0.34 0.14,-0.12 0.07,0.02 0.19,-0.3 0.31,-0.87 0.31,-2.58 0.94,-3.51 0.92,0.01 1.2,0.52 1.58,1.7 0.29,0.91 0.65,1.56 0.94,2.41 1.02,3.09 0.65,4.55 1.06,5.48 0.02,0.04 0.04,0.08 0.07,0.12 -0.11,0.63 0.24,1.55 0.64,1.8 0.72,0.45 1.32,-0.41 1.99,0.04 0.18,0.12 1.03,1.05 1.26,1.29 1.71,1.73 -0.33,2.58 1.22,6.18 0.61,1.42 0.52,2.58 0.7,4.24 0.19,1.88 0.87,2.98 1.79,3.83 1.96,-21.37 0.34,-42.97 -5.37,-63.12 4.54,1.19 5.9,1.54 10.44,2.72 5.36,23.42 6.23,47.5 3.16,70.6 0.25,0.03 0.48,0.04 0.61,0.07 1.16,0.28 0.98,2.3 1.01,3.57 0.06,2.64 0.52,2.27 3.6,4.68 0.02,0.02 0.05,0.04 0.07,0.06 0.02,0.01 0.05,0.04 0.07,0.06 0.35,0.28 0.03,-0.12 0.32,0.31 1.06,2.15 1.55,3.27 -0.27,7.37 0.26,1.8 0.52,2.34 -0.29,3.14 -0.34,0.34 -0.46,0.77 -0.27,1.41 0.25,0.83 0.3,0.46 -0.04,1.46l-0.95 3.08c-0.01,0.03 -0.02,0.06 -0.03,0.09l-0.67 1.58c-0.18,0.42 -0.18,0.39 -0.2,0.88 0.1,1.32 -2.71,4.04 -3.43,4.75 -0.67,0.67 -1.31,1.37 -1.91,2.17l-3.03 5.23c-0.36,0.84 -0.95,1.91 -1.29,2.81 -0.57,1.47 -0.41,1.57 -2.12,1.95 -0.32,0.07 -1.67,0.23 -2.65,0.31 -12.71,32.76 -34.12,60.48 -62.22,77.03 48.23,-23.98 95.89,-79.85 92.47,-161.99 3.36,1.38 4.33,1.78 7.69,3.16 0.32,96.61 -54.26,170.69 -157.16,175.96l0 0 -8.47 0 0 -98.75c-0.34,0.15 -0.59,0.08 -0.59,-0.49 0,-0.49 -0.02,0.03 0.13,-0.32 0.14,-0.32 0.29,-0.61 0.46,-0.87l0 -87c-0.08,0.02 -0.16,0.03 -0.26,0.03 -0.51,0 -0.77,-0.52 -0.33,1.33l-0.89 0c-0.09,0.41 -0.21,0.5 -0.22,1 -1.76,0 -2,-0.27 -2,0.89 0.35,0 0.89,-0.08 0.89,0.45 0,1.17 -1.19,1.19 -1.44,1.89 -0.89,-0.07 -0.61,-0.42 -0.89,-1 -0.67,0.06 -0.99,0.59 -1.42,0.91 -0.33,0.24 -0.4,0.13 -0.72,0.39 -0.53,0.44 -0.48,1.23 -0.79,1.54 -0.27,0.27 -0.36,0.09 -0.75,0.36 -0.26,0.18 -1.73,1.49 -1.75,0.37 -0.01,-0.62 0.39,-1.18 0.69,-1.66 0.33,-0.55 0.06,-0.67 0.34,-1.21 0.52,-1.01 1,-0.4 2.05,-1.73 0.58,-0.74 0.27,-0.7 1.35,-0.87 1.45,-0.22 0.44,-1.51 0.44,-2.11 0,-0.53 0.1,0.13 0.06,-0.51 -0.03,-0.56 -0.27,-0.63 0.4,-0.8 0.92,-0.24 0.01,0.41 0.96,-1.15 0.47,-0.77 0.57,-1.15 0.57,-2.31 0,-0.83 -0.3,-0.56 -0.51,-1.94 -0.25,-1.7 -1.07,-1.39 -1.42,-2.25 -0.04,-0.11 -0.19,-0.95 -0.18,-1.04 0.05,-0.54 0.28,-0.34 0.74,-0.46 0.52,-0.14 0.29,-0.42 0.69,-0.42 0.56,0 1,0.66 1.19,0.92 0.29,0.39 1.25,0.99 1.25,2.08 0,0.78 -0.51,0.14 0.03,1.41 0.08,0.18 0.12,0.32 0.19,0.48 0.21,0.47 0.25,0.39 0.6,0.73 0.28,0.26 0.16,0.09 0.29,0.48 0.33,0.99 0.44,0.63 0.44,1.56 0.13,0.03 0.26,0.07 0.37,0.13l0 -122.98c-10.96,13.04 -19.77,31.85 -26.15,54.38 0.63,-0.19 0.54,-0.46 1.2,-0.63 0.75,-0.19 0.97,0.06 1.15,-0.73 -0.72,-0.06 -1,-0.55 -1,-1.22 0,-0.45 -0.03,-0.04 0.16,-0.28 0.52,-0.65 1.16,-0.94 2.06,-0.94 0.82,0 0.4,0.69 0.58,1.2 0.15,0.44 0.67,0.16 1.27,0.29 0.34,0.07 0.33,0.1 0.72,0.17 0.29,0.05 0.39,0.03 0.57,0.21l0.54 1.02c0,0.41 -1.18,0.96 -1.46,1.31 -0.29,0.36 -0.09,0.51 -0.5,0.83 -0.32,0.25 -0.63,0.19 -1.14,0.19 -0.06,0.26 -0.1,0.33 -0.11,0.67 -0.49,0.01 -0.52,0.11 -1.11,0.11 0.07,0.82 0.86,0.67 1.66,0.79 0.63,0.09 0.64,0.5 0.79,0.98 0.23,0.75 -0.36,2.11 0.17,2.07 0.68,-0.05 0.3,-0.96 1.05,-0.96 0.62,0 -0.25,0.27 1.15,-0.29 0.52,-0.21 1.29,-0.45 1.81,-0.01 0.53,0.44 0.2,1.5 0.13,2.06 -0.08,0.61 -0.24,0.73 0.1,1.25 0.23,0.35 0.26,0.65 0.43,1.13 0.17,0.47 0.3,0.62 0.61,0.94 0.38,0.38 0.35,0.57 0.72,0.95 0.61,0.62 0.82,1.26 1,2.11 0.16,0.7 0.61,1.81 -0.33,2.17 -0.32,0.12 -0.57,0.1 -0.87,0.24 -0.23,0.96 0.33,1.07 0.33,1.78 0,0.52 -0.57,0.51 -0.89,0.66 0.1,0.43 0.44,0.99 0.69,1.3 0.61,0.73 1.3,1.05 1.92,1.96 0.19,0.27 0.24,0.31 0.43,0.56 0.7,0.91 0.85,0.06 1.5,0.06 0.69,0 0.53,0.72 0.96,1.26 0.49,0.6 0.22,0.99 0.91,1.31 0.54,0.25 0.76,0.65 1.11,1.11 0.54,0.72 0.48,0.41 0.45,1.65 -0.02,1.15 0.09,0.91 0.7,1.52 0.54,0.54 0.45,0.74 0.7,1.52 0.34,1.02 1.38,1.65 1.38,2.95 0,1.11 -0.44,1.02 -1.47,0.81 -0.77,-0.15 -0.68,-0.51 -1.31,-0.8 -0.92,-0.42 -1.28,-1.23 -2.36,-1.87 -0.93,-0.55 -1.77,-1.02 -2.63,-1.59 -2.86,-1.89 -1.58,-3.75 -2.71,-5.73 -0.42,-0.73 -0.9,-2.24 -1.11,-3.11 -0.56,-2.26 -1.12,-2.4 -2.53,-3.8 -0.4,-0.39 -0.71,-0.79 -1.31,-0.8 -0.48,2.05 0.65,1.37 1.36,1.97 0.29,0.25 0.23,0.55 0.36,0.98 0.12,0.41 0.29,0.5 0.39,0.94 -0.21,0.31 -0.37,0.44 -0.78,0.44 -0.38,0 -0.61,-1.12 -1.47,-0.02 -0.19,0.25 -0.59,1.53 -0.62,1.94 -0.03,0.52 0.24,0.51 0.4,0.88 0.09,0.19 0.09,0.33 0.16,0.51l0.69 1.09c0.24,0.29 0.35,0.37 0.39,0.83 0.55,-0.37 0.62,-0.64 1.44,-0.45 0,1.07 -0.69,2.44 -1.49,2.73 -0.99,0.37 -0.95,-0.18 -1.36,0.75 -0.2,0.47 -0.01,0.22 -0.55,0.45 -1.04,0.44 0.18,1.04 -1.11,1.78 -0.47,0.27 -0.67,0.65 -1.01,0.98 -0.62,0.59 -1.09,-0.11 -1.34,0.77 -0.17,0.61 0,0.2 -0.28,0.72 -0.27,0.49 -0.08,1.19 -0.26,1.74l-0.27 2.84c-0.06,0.68 -0.09,1.19 -0.1,2.01 -0.01,0.77 -0.23,1.06 -0.23,1.77l0.39 0.72c0.1,0.26 0.21,0.55 0.24,0.87 0.03,0.49 -0.1,0.21 -0.1,0.64 0,0.02 0.01,0.05 0.01,0.07l0.47 0.81c0.01,-0.41 0.05,-0.67 0.45,-0.67 0.78,0 0.32,1.39 2.11,0.44 0,-0.73 -0.11,-1.08 -0.11,-1.89 1.16,-0.27 0.87,0.2 1.57,0.32 0.35,0.06 0.9,0.05 1.23,0.1 0.86,0.14 1.07,0.71 1.09,1.58 1.05,-0.5 1.01,1.15 1.54,1.91 0.65,0.92 1.58,1.72 1.65,2.02 0.22,1.02 -0.12,0.95 0.44,1.89 0.33,0.55 0.6,1.03 0.7,1.74l0.34 6.77c0,0.86 -0.21,1.61 -0.35,2.43 -0.11,0.65 -0.24,1.14 -0.48,1.75 -0.28,0.72 -0.33,0.9 -1.16,1.06 -0.55,0.11 -1.68,-0.04 -1.68,0.54 0,0.5 0.17,0.74 0.01,1.11 -0.4,0.87 -0.8,0.44 -0.79,1.66l-0.12 2.43c-0.12,1.06 -0.67,1.89 -0.76,2.91 0.67,0.32 0.41,0.11 1,0.11 0.98,0 1.12,0.25 1.65,0.91 0.29,0.36 0.36,0.27 0.71,0.51l1.17 1.16c0.22,0.31 0.1,0.47 0.25,0.86 0.48,1.29 1.39,1.58 -0.19,3.13 -0.42,0.41 -0.62,0.91 -1.18,1.15 -0.8,0.34 -1.42,0.62 -1.62,-0.08l-0.14 -0.52c-0.22,-0.47 -0.2,-0.93 -0.2,-1.47 -0.28,-0.08 -0.78,-0.32 -0.78,-0.67 0,-0.76 0.6,-0.13 -0.61,-1.61 -0.3,-0.37 -0.02,-0.26 -0.61,-0.27 -0.07,0.28 -0.1,0.55 -0.45,0.55 -2.53,0 -1.41,-0.72 -1.5,-1.28l-0.16 -0.62c-0.18,-1.1 -0.83,-0.71 -1.67,-0.54 -1.37,0.29 -0.73,0.55 -1.42,1.24 -0.25,0.25 -0.24,0.13 -0.49,0.4 -0.46,0.5 -0.67,1.1 -0.98,1.68l-0.55 0c0.08,-0.16 0.31,-0.89 0.33,-1.11 -0.55,-0.01 -0.54,-0.01 -0.55,-0.55 0.97,-0.23 1.09,-2 -0.33,-2 -1.19,0 -0.89,0.42 -1.18,1.37 -0.29,0.94 -0.62,0.83 -0.87,1.35 -0.23,0.47 -0.27,1.11 -0.72,1.51 -0.31,0.28 -0.4,0.08 -0.79,0.1 -1.04,0.05 -0.36,1.25 0.16,1.52 0.59,0.31 0.74,-0.19 1.63,-0.19 0,0.18 0.23,1.44 0.66,1.44 0.41,0 1.1,-0.38 1.37,-0.63 0.37,-0.33 0.19,-0.22 0.31,-0.69 0.19,-0.74 0.75,-0.33 1.24,-0.27 0.44,0.05 1.86,-0.54 1.86,0.15 0,0.66 -0.39,0.66 -1.11,0.66 -0.41,0.78 -0.28,0.63 -1,1.11 0.17,0.73 0.14,0.85 -0.56,1.22 0,1.42 -0.44,1.1 -0.44,1.78 0,0.56 0.1,0.5 0.11,1 0.39,-0.09 0.37,-0.22 0.78,-0.22 0.52,0 1.28,0.32 1.48,0.74 0.23,0.49 0.26,0.65 0.7,0.96l0.19 0.14c0.23,0.23 0.19,0.5 0.57,0.65 0.24,0.1 0.62,0.08 0.92,0.19 0.46,0.18 1.01,0.5 1.03,1.09l-0.67 0c0.17,0.62 0.12,0.12 0.64,0.47 0.22,0.15 0.36,0.41 0.36,0.75 0,0.42 -0.53,0.36 -0.94,0.62 -1.23,0.78 -0.15,1.71 -0.06,0.61 0.6,0 0.66,0.06 1.13,0.32 0.04,0.02 0.28,0.14 0.29,0.15 0.55,0.38 0.13,0.46 0.25,0.76 0.05,0.11 -0.14,0.06 0.22,0.09 -0.01,0.52 0.11,0.44 -0.33,0.56 0.09,0.17 0.33,0.5 0.33,0.66 0,1.19 -0.32,0.43 -0.95,1.61 -0.11,0.2 -0.16,0.22 -0.27,0.39 0.24,0.46 0.27,0.96 0.01,1.46 -0.23,0.43 -0.3,0.12 -0.52,0.59 -0.09,0.19 -0.05,0.28 -0.16,0.51 0.43,0.21 0.29,-0.03 0.56,0.33 -0.12,0.49 -0.29,0.55 -0.78,0.66 0.23,0.32 -0.02,0.21 0.55,0.22 0,0.65 0.05,0.79 -0.55,1.11 0.18,0.8 0.22,0.68 -0.24,1.2 -0.43,0.49 -0.04,0.25 -0.26,0.74 -0.26,0.57 -0.9,0.01 -1.04,0.85 -0.2,1.14 0.22,0.55 -0.84,1.05 -0.49,0.23 -0.47,0.77 -0.72,1.17 -0.31,0.48 -0.13,-0.09 -1.03,0.97 -0.4,0.46 -0.74,0.32 -1.34,0.55 -0.64,0.24 -0.68,0.64 -1.07,0.82 -0.47,0.22 -0.65,-0.28 -1.33,-0.34 0.05,0.55 0.22,0.41 0.22,0.89 0,0.54 -0.82,0.7 -1.36,0.97 -0.26,0.13 -0.43,0.31 -0.64,0.48 -0.2,0.16 -0.11,0.09 -0.28,0.28 -0.31,0.33 -0.28,0.16 -0.57,0.32 -1.29,0.69 -1.7,0.13 -2.36,1.51 0.33,0.16 0.67,0.12 0.81,0.53 0.07,0.21 -0.15,0.69 -0.47,0.69 -1.1,0 -0.89,-1.22 -0.89,-2 -1.37,0.66 -1.13,0.23 -2,0 -0.27,0.2 -0.23,0.31 -0.34,0.41 0.11,2.92 0.25,5.84 0.42,8.77 0.42,0.11 0.23,0.02 0.64,0.32 0.7,0.53 0.62,0.83 1.09,1.36 0.24,0.28 0.39,0.26 0.67,0.55 0.18,0.19 0.36,0.48 0.48,0.74 0.73,1.64 0.43,1.58 0.61,2.82 0.23,1.56 0.02,0.86 -0.21,1.72 -0.07,0.3 -0.03,0.66 -0.03,0.97 -0.64,0.43 -1.49,0.61 -1.84,1.38 -0.18,0.39 -0.41,0.54 -0.67,0.58 0.77,9.33 1.84,18.71 3.21,28.05l1.07 -0.04c0.54,0 0.47,0.89 1.44,0.89l1.11 0c0.63,0 0.86,-0.15 1.38,-0.28 0.3,-0.07 0.48,-0.06 0.7,-0.19 0.63,-0.34 0.12,-0.84 0.7,-0.94 0.14,-0.02 0.4,0.08 0.58,0.15 1.66,0.59 1.7,0.05 2.74,0.05 0.77,0 0.99,1.11 1.77,1.11 1.02,0 0.19,-0.33 2.56,-0.33 0.05,0.24 0.1,0.71 0.17,0.93 0.12,0.34 0.23,0.21 0.27,0.73 -0.73,0 -1.22,-0.02 -1.8,-0.09 -3.04,-0.37 -0.66,-0.27 -2.75,0.09 -0.5,0.09 -0.79,0.05 -1.33,0.11l-1.16 0.28c-3.42,0.64 -3.68,-0.93 -6.44,-0 -0.18,0.06 -0.4,0.11 -0.64,0.15 3.04,19.86 7.48,39.57 13.4,58.52 -3.16,-0.79 -6.32,-1.58 -9.48,-2.37 -5.19,-19.64 -9.41,-39.6 -12.46,-59.6 -1.48,-0.85 -0.92,-1.01 -1.94,-1.25 -0.46,-0.11 -0.66,0.02 -1,-0.22l-1.95 -1.6c-0.98,-0.78 -1.3,-2.11 -1.8,-2.86 -0.41,-0.61 -1.83,-1.36 -2.44,-2.34 -0.71,-1.15 -0.52,-1.81 -2.06,-2.6 -0.84,-0.43 -0.87,-0.02 -1.48,-0.85 -0.47,-0.64 -0.3,-0.98 -1.1,-1.35 -1.76,-0.81 -2.48,-0.75 -3.09,-1.57 -0.61,-0.82 -1,-0.52 -1,-1.44 0,-0.37 0.2,-0.78 0.56,-0.78 1.22,0 0.7,0.59 1.53,0.6 0.56,0.01 1.28,-0.09 1.91,-0.04 1.11,0.08 1.01,0.22 1.43,0.57 0.17,0.14 0.43,0.27 0.59,0.41 0.68,0.61 0.77,0.8 1.77,1.23l1.84 1.15c0.92,0.54 0.31,0.88 0.95,1.03 0.67,0.16 1.51,-0.68 1.63,0.82 2.81,0.23 1.53,0.69 2.2,1.24 0.24,0.2 1.25,0.29 2.1,0.41l-0.24 -1.77 -0.05 -0.02c-0.26,-0.08 -0.73,0.03 -1.33,-0.11 -0.7,-0.17 -0.47,-0.23 -0.94,-0.62 -0.35,-0.29 -0.71,-0.28 -1.08,-0.58 -0.36,-0.29 -0.42,-0.62 -0.62,-0.94 -0.52,-0.81 -1.27,-0.17 -1.27,-1.84 -1.21,-0.64 -0.32,-2.01 -1.58,-3.42 -0.24,-0.26 -0.34,-0.54 -0.56,-0.77 -0.64,-0.63 -1.4,-0.96 -1.85,-1.81 -0.87,0.07 -1.11,0.3 -1.11,-1.11 0,-0.8 0.43,-1.26 0.45,-2.11 -0.84,-0.23 0.12,-1.35 -0.1,-2.34 -0.45,-2.04 0.19,-1.44 -0.9,-3.54 -0.15,-0.29 -0.22,-0.42 -0.4,-0.71 -0.65,-1.06 0.35,-1.43 -0.93,-2.29 0,-1.07 -0.03,-1.38 -0.22,-2.22 -0.32,0.09 -0.43,0.26 -0.78,0.44 -0.38,-0.72 -0.06,-1.05 -0.45,-1.77 -0.37,0.27 -0.38,0.51 -0.46,1.1 -0.11,0.79 -0.21,0.5 -0.76,0.79 -0.36,0.19 -0.52,0.55 -0.82,0.74l-1.08 0.48c-0.06,-0.04 -0.24,-0.21 -0.24,-0.21 -0.02,-0.01 -0.05,-0.03 -0.07,-0.04 -0.02,-0.01 -0.05,-0.02 -0.07,-0.04 -0.02,-0.01 -0.05,-0.02 -0.08,-0.03l-0.36 -0.19c-0.16,-0.11 0.05,0.01 -0.17,-0.16 -0.21,0.39 -0.07,0.43 -0.67,0.45 -0.03,-0.35 -0.11,-0.4 -0.11,-0.78 0,-0.4 0.55,-1.34 0.55,-1.66 0,-0.33 -0.13,-0.35 -0.3,-0.7 -0.16,-0.33 -0.09,-0.35 -0.21,-0.68 -0.09,-0.25 -0.05,-0.09 -0.14,-0.3 -0.18,-0.42 0.01,-0.51 -0.57,-0.65 0,-0.35 0.02,-0.51 -0.05,-0.83 -0.12,-0.53 -0.19,-0.43 -0.44,-0.78l-0.5 -0.61c-0.41,0.15 0,-0.01 -0.28,0.16 -0.18,0.12 -0.12,0.09 -0.27,0.17l-0.31 -0.47c-0.27,-0.46 -0.52,-0.3 -0.74,-0.6 -0.44,-0.6 0.19,-0.49 -0.96,-1.04 0,-1.07 -0.14,-1.13 -0.79,-1.56l0.13 -0.88c-1.47,-0.34 -1.06,-0.39 -1.42,-0.49 -0.38,-0.11 -0.42,0.06 -0.27,0.37 0.29,0.6 0.36,0.03 0.36,1.11 -0.94,0 -0.74,0.33 -1.67,0.11 -0.28,1.06 -1.1,0.05 -1.33,-0.11 -0.87,0.64 0.52,0.55 -1.56,0.55 -0.06,-0.26 -0.1,-0.33 -0.11,-0.67 -0.5,0.34 -0.25,0.48 -0.71,0.85 -0.32,0.27 -0.63,0.38 -1.07,0.49 0,1.86 -1.29,1.81 -1.96,2.14l-0.86 0.36c-0.33,0.28 -0.39,0.73 -0.61,1.05 -0.45,0.66 -0.9,0.48 -1.43,0.9 -0.51,0.4 -0.93,0.87 -1.42,1.24 1.59,21.62 5.61,43.05 11.94,63.01 -4.54,-1.18 -6.17,-1.61 -10.71,-2.8 -3.21,-13.83 -5.8,-27.3 -7.71,-40.37 -0.38,0.01 -0.78,-0.04 -1.1,-0.12 -0.1,-0.41 -0.09,-0.96 -0.23,-1.32 -0.31,-0.84 -0.55,-0.1 -0.55,-1.45 0,-0.27 0.12,-0.13 0.27,-1.06 0.06,-0.4 0.12,-0.63 0.24,-0.98 0.14,-0.41 0.31,-0.82 0.54,-1.08 -0.13,-1 -0.26,-2 -0.38,-2.99l0 0.01c0,0.77 0.18,0.47 0,1.22 -0.5,0 -0.65,0.06 -1,-0.11 0,0.74 -0.48,1.27 -1.04,1.62 -0.43,0.27 -0.58,0.27 -1.07,0.27 0,0.49 -0.36,1.44 -0.89,1.44 -0.71,0 -1.39,-0.05 -1.77,-0.67 -0.19,-0.3 -0.12,-0.23 -0.36,-0.52 -0.47,-0.56 -0.38,-1.29 -0.52,-2.03 -0.13,-0.69 -0.29,-0.62 -0.52,-1.15 -0.32,-0.73 -0.12,-1.44 -0.69,-1.97 -0.52,-0.49 -0.17,-0.7 -0.49,-1.17 -0.09,-0.13 -0.28,-0.25 -0.39,-0.39 -0.7,-0.97 -0.14,-1.59 -0.14,-2.3 0,-0.95 -0.33,-1.17 -0.74,-1.93 -0.19,-0.35 -0.13,-0.49 -0.26,-0.84 -0.35,-0.92 -0.78,-1.4 -0.78,-2.56 0.01,-1.04 -0.33,-1.14 -0.33,-1.89 0,-0.66 0.14,-1.58 -0.04,-2.17 -0.12,-0.37 -0.3,-0.59 -0.3,-0.94 0,-1.14 0.78,-1.2 0.78,-1.78 0,-0.41 -0.33,-0.43 -0.33,-0.78 0,-0.49 0.48,-0.18 0.67,-0.89 -0.31,-0.32 -0.41,-0.09 -0.67,-0.44 0.07,-0.27 0.81,-0.95 0.27,-0.91 -0.77,0.06 -0.78,0.63 -0.91,1.26 -0.18,0.87 -1.08,0.47 -1.96,0.61 -1.34,0.2 -1.18,-1.22 -2,-1.8 -0.33,-0.24 -0.5,-0.15 -0.5,-0.72 0,-0.51 0.51,-0.7 0.91,-0.75 0.79,-0.11 0.82,0.21 1.2,-0.36 -0.77,-1.05 -2.78,0.4 -2.78,-1.78 -1.57,0 -1.85,-0.73 -1.56,-2l-0.72 -0.51c-0.68,-0.56 0.4,-1.33 -0.55,-1.78 -0.66,-0.31 -0.91,0.07 -1.73,0.07 -0.6,0 -0.92,-0.27 -1.37,-0.52 -0.96,-0.52 -3,0.12 -3.73,-1.26 -1.37,0 -2.27,-0.05 -2.89,-1.22 -0.62,0 -1.02,0.22 -1.52,-0.03l-2 -1.45 -0.1 -0.09c-0.05,1.23 -0.09,2.47 -0.12,3.7 0.21,0.1 0.42,0.19 0.63,0.31 -0.08,0.92 -0.22,1.04 0.48,1.97 0.57,0.76 0.03,1.1 -0.59,1.48 -0.41,0.25 -0.51,0.38 -0.57,0.46 0,15.27 1.89,30.38 5.82,44.71 -4.54,-1.19 -5.59,-1.46 -10.13,-2.64 -2.82,-12.35 -4.4,-24.88 -4.81,-37.36 -0.24,0.01 -0.46,-0.04 -0.87,-0.17 -0.67,-0.22 -2.2,-0.34 -2.89,-0.28l-1.43 0.27c-0.13,0.29 -0.08,0.22 0,0.55 -0.85,0.02 -0.43,0.45 -1.22,0.45 -1.2,0 -2.03,-0.33 -3.2,-0.47 -0.29,-0.03 -1.2,-0.2 -1.46,-0.19 -0.65,0.02 -0.62,0.43 -1.22,0.43 -0.49,0 -0.79,-0.3 -1.13,-0.43 -0.55,-0.22 -0.52,0.1 -1.2,0.1 -0.08,0 -0.17,-0.01 -0.26,-0.03 0,2.47 0.05,4.97 0.13,7.49 -3.36,-1.38 -6.72,-2.77 -10.08,-4.15 -0.04,-13.24 0.95,-26.05 2.95,-38.32 -0.14,-0.16 -0.2,-0.35 0.1,-0.67 0.93,-5.56 2.06,-11.02 3.4,-16.35 -0.12,-0.09 -0.24,-0.21 -0.36,-0.38 0.08,-0.36 0.19,-0.49 0.22,-0.89 -0.64,-0.05 -0.65,-0.55 -0.33,-1 -0.27,-0.13 -0.51,-0.19 -0.78,-0.33 0.04,-0.47 0.09,-0.21 0.2,-0.45l0 -0.66c-0.08,-0.18 -0.1,0.02 -0.2,-0.33 0.74,-0.39 0.24,-0.08 0.51,-0.71 0.16,-0.37 0.55,-0.71 0.26,-1.54 -0.14,-0.4 -0.22,-0.2 -0.22,-0.86 0.69,0 0.67,0.18 1.22,0.22 0,-0.8 0.09,-0.55 0.22,-1.11 -0.38,-0.1 -0.34,-0.06 -0.44,-0.44 0.36,-0.24 0.18,-0.17 0.74,-0.26 0.56,-0.09 1.01,-0.02 1.38,0.03 19.12,-63.18 68.85,-107.15 146.36,-111.8l0 -0.01 6.35 0 2.12 0 0 315.02zm45.93 -98.82c-4.35,33.28 -13.69,64.85 -29.23,93.09 34.02,-19.91 54.63,-60.19 62.67,-105.75 -0.33,0.06 -0.61,0.35 -1.58,0.65 -0.77,0.24 -1.62,0.37 -2.5,0.56 -2.39,0.53 -4.66,1.86 -6.8,1.95 -2.39,0.1 -3.01,0.42 -4.52,1.5 -1.69,1.2 -2.24,1.38 -3,3.02 -0.33,0.71 -0.57,1.35 -1.52,1.47 -1.39,0.18 -4.22,-0.24 -5.83,0.06 -0.76,0.14 -1.39,0.47 -2.07,0.72 -0.5,0.09 -0.21,0.03 -0.5,0.16l-1.76 1.29c-0.84,0.66 -2.07,1.07 -3.35,1.28zm42.99 -4.22c-7.46,38.84 -25.7,71.4 -57.4,96.13 35.04,-13.23 61.99,-44.6 77.35,-82.31 -0.87,0.13 -1.71,0 -2.54,-0.13 -2.49,-0.38 -4.8,-0.52 -5.58,-2.79l-0.45 -2.17c-0.01,-0.05 -0.03,-0.06 -0.05,-0.09 0.04,-0.42 -0.11,-1.1 -0.21,-1.52 -0.13,-0.54 -0.38,-0.81 -0.45,-1.2 -0.05,-0.35 0.01,-0.08 -0.09,-0.36l-0.09 -0.19c-0.96,-1.85 -1.58,-1.28 -2.47,-1.75l-0.3 -0.2c-0.02,-0.01 -0.05,-0.04 -0.07,-0.05 -0.02,-0.01 -0.06,-0.04 -0.07,-0.05l-0.15 -0.1c0.04,-0.21 0.08,-0.4 0.15,-0.61l1.07 -1.44c0.13,-0.17 0.3,-0.35 0.28,-0.76l-0.07 -0.3c-0.67,-0.01 -1.11,0.45 -1.77,1.04 -0.36,0.32 -0.4,0.34 -0.81,0.59 -0.11,0.07 -0.39,0.24 -0.52,0.28 -0.05,0.01 -0.2,0.03 -0.32,0.03l-0.23 -0.06c-0.33,-0.91 0.4,-1.59 0.48,-2.5 0.17,-0.06 0.19,0.21 0.13,-0.26 0.12,-0.08 0.08,0.03 0.21,-0.19 0.16,-0.27 0.07,-0.07 0.05,-0.32 0.04,-0.05 0.07,-0.06 0.15,-0.23 0.01,-0.02 0.01,-0.06 0.02,-0.12 0.01,-0.06 0.01,-0.09 0.01,-0.13 0.02,-0.02 0.05,-0.05 0.06,-0.06 0.35,-0.39 0.56,-0.76 0.57,-1.35 0,0 0.3,0.13 0.32,-0.68 0.02,-1.13 -0.65,-0.61 -0.89,-0.14 -0.06,0.11 -0.07,0.16 -0.11,0.29 -0.24,-0.07 -0.19,-0.1 -0.12,0.14 -0.38,0.16 -0.84,0.9 -1.19,1.35 -0.41,0.53 -0.68,0.82 -1.11,1.31l-2.35 2.48c-0.42,-0.02 -0.24,-0.08 -0.25,0.13l-0.8 -0.01 -0.39 -1.71zm-141.21 -10.09c-0.37,-3.16 -0.71,-6.31 -1.02,-9.46l-0.05 0c-0.32,-1.36 0.16,-1.78 -1.55,-1.78 -0.98,-1.85 -2.4,-0.32 -2.64,-1.13 -0.15,-0.51 0.14,-1.09 -0.47,-1.09 -0.74,0 -1.59,0.36 -1.32,1.2 0.28,0.84 0.88,1.38 0.11,2.14 -0.61,0.61 -0.42,1.6 -0.85,2.26 -0.2,0.31 -0.38,0.41 -0.38,0.84 0,0.31 0.28,0.76 0.57,0.87 0.73,0.3 0.31,-0.45 1.2,1.02 0.45,0.74 0.61,0.69 0.26,1.56 -0.09,0.21 -0.06,0.05 -0.06,0.27 0,0 0.03,0.23 0.04,0.27 0.42,0.1 0.71,0.16 1.05,0.39 0.45,0.31 0.42,0.21 1.05,0.29 0.43,0.05 0.7,0.2 0.98,0.46 0.56,0.5 0.1,0.27 0.9,0.43l1.02 0.43c0.36,0.21 0.81,0.64 1.18,1.02zm4.43 -125.29c5.21,-23.58 13.25,-46.02 24.61,-66.68 -26.08,15.26 -44.16,41.96 -54.84,73.91 0.73,-0.28 1.71,-0.14 2.63,-0.54l1.1 -0.34c0.5,-0.09 0.57,-0.29 0.68,-0.77 1.16,0.61 0.3,0.45 1,-2.55l1 -0.11c0.93,0 0.44,1.1 1.45,1.22 0.68,0.08 1.61,-0.22 2.43,-0.22 0.81,0 0.95,2.68 -0.16,4.17 -0.9,1.23 -0.57,1.01 -1.06,2.05 0.63,-0.01 0.73,-0.32 1.05,-0.73 1.09,-1.42 1.21,-0.55 2.18,-1.15 0.35,-0.22 0.56,-0.54 0.66,-1 0.96,0 3.59,0.19 4.22,-0.11 0.22,-0.46 -0.02,-0.76 0.31,-1.14 0.22,-0.25 0.65,-0.34 1.1,-0.28 1.32,0.18 1.7,-0.35 1.7,1.2 1.62,0.38 0.66,1.22 3,1.22 0,-0.63 -0.21,-1.08 -0.22,-1.66 0.39,0 1.16,-0.13 1.47,-0.2 0.54,-0.13 0.29,-0.17 0.41,-0.91 0.07,-0.44 0.36,-0.71 0.42,-1.13 0.05,-0.32 -0.19,-0.75 -0.19,-1.31 0,-1.57 0.54,-0.77 2,-1.11 0.4,-1.73 0.29,-1.61 1.32,-1.68 0.92,-0.06 1.26,0.01 1.74,-0.13zm-44.53 17.25c0.23,-0.84 0.46,-1.68 0.7,-2.51 -0.13,-0.17 -0.31,-0.32 -0.31,-0.72 0,-0.38 0.21,-0.25 0.47,-0.53 0.5,-0.53 0.1,-1.09 0.61,-1.42 9.25,-30.72 26.34,-56.88 52.85,-77.56 -30.96,11.69 -55.49,37.64 -71.36,69.58l-0.01 0.28c-0.03,1.31 0.05,0.79 0.59,1.63 0.55,0.86 0.21,2.57 -0.05,3.47 -0.19,0.65 -0.05,1.22 -0.71,1.51 -0.64,0.28 -1.02,0.35 -1.65,-0.01 -0.64,-0.36 -0.26,-0.62 -1.03,-0.86 -0.37,0.83 -0.75,1.66 -1.11,2.5l0.17 0.23c0.01,0.01 0.03,0.05 0.04,0.07l0.08 0.14c0.16,-0.58 0.23,-0.16 0.61,-0.6 0.21,-0.25 0.19,-0.62 0.61,-0.62 0.64,0 0.82,0.44 1.67,0.44l1.11 -0.11 0.11 0.88c0.59,-0.01 0.25,0.05 0.6,-0.18l0.26 -0.19c0.28,-0.26 0.2,-0.41 0.34,-0.77 0.2,-0.51 0.5,-0.96 0.99,-1.23 0.22,-0.12 0.3,-0.15 0.5,-0.28 0.84,-0.55 0.62,-0.09 1.32,0.1 0,0.6 0.15,1.33 -0.44,1.33 -0.73,0 -0.78,-0.18 -1.33,-0.22 0.08,0.99 0.63,-0.09 0.22,1.67 0.23,0.12 0.26,0.15 0.56,0.22 0.43,-0.32 0.13,-0.47 0.6,-0.63 0.31,-0.1 0.6,0.07 1.07,0.07 0.28,0 0.65,-0.23 1.1,-0.23 2.27,-0.02 2.87,-0.43 2.89,0.56 -0.38,0.1 -0.52,0.22 -0.55,0.69l1.33 -0.13c0.2,-0.02 0.27,0.44 0.67,0.44 0.39,0 0.72,-0.44 1,-0.44 0.4,0 0.26,0.2 0.36,0.53 0.25,0.88 0.91,0.66 1.53,0.25l0 -1c0.71,-0.16 1.37,-0.13 1.78,0.56 0.84,1.42 0.74,0.61 1.18,1.37 0.12,0.22 0.18,0.32 0.26,0.52 0.17,0.45 0.13,0.77 0.34,1.21l0.05 0.01zm-31.7 27.17c-0.25,1.01 -0.48,2.02 -0.71,3.03 0.05,-0.01 0.1,-0.01 0.16,-0.01 0.63,0 1.07,0.61 1.33,1 0.45,-0.11 0.52,-0.11 1.11,-0.11 -0.08,-0.35 -0.39,-0.77 -0.03,-1.01 0.34,-0.22 0.92,-0 0.92,-0.54 0,-0.82 -0.19,-1.02 -0.99,-1.35 -0.89,-0.36 -0.56,-0.73 -1.01,-1 -0.09,-0.05 -0.4,-0.05 -0.79,-0.01zm-0.9 3.85l-0.11 0.5 0.02 0.01c0.09,-0.16 0.1,-0.34 0.09,-0.5zm-0.69 3.24c-0.3,1.46 -0.59,2.92 -0.85,4.38 0.25,-0.14 0.65,-0.24 1.23,-0.24 0.1,0.38 0.31,0.56 0.78,0.56 0.96,0 0.71,-0.22 0.46,-1.46 -0.21,-1.02 -0.28,-0.92 -1.18,-0.59 -0.37,0.14 -0.72,0.28 -0.72,-0.18 0,-1.11 0.13,-0.69 0.78,-1 0.33,-1.43 -0.18,-1.13 -0.49,-1.47zm-1.03 5.3c-0.22,1.23 -0.43,2.46 -0.62,3.7 0.38,-0.4 1.48,-1.34 1.48,-2.42 0,-0.16 -0.32,-0.46 -0.35,-0.54 -0.14,-0.34 -0.13,-0.08 0.13,-0.46 -0.26,-0.02 -0.48,-0.13 -0.63,-0.28zm-0.82 5l-0.05 0.33c0.03,-0.05 0.05,-0.1 0.05,-0.16l-0 -0.17zm-11.35 20.53c0.11,-3.42 0.31,-6.82 0.6,-10.21l-0.05 -0.12c-0.15,-0.38 0.04,-0.49 0.04,-1.03 0,-0.58 -1,0.11 -1,-0.55 0,-0.61 0.39,-0.81 -0.33,-1 -0.11,0.49 -0.08,0.52 -0.33,0.89 -0.38,-0.21 -0.76,-0.42 -0.89,-0.89l-0.11 0.45 -0.33 0c-0.13,-0.4 -0.21,-0.17 -0.55,0 0.25,0.47 0.3,0.78 0.19,1.52 -0.13,0.9 -0.08,2.16 -0.08,3.14 0,0.47 1.22,0.63 1.22,1.88 0,1.04 -0.67,0.12 -0.67,1.45 0.44,-0.3 0.4,-0.36 1,-0.22 0.27,1.15 -0.06,0.96 -0.89,0.89l0 1c1.28,0 0.72,-1.44 1.55,-1.44 0.75,0 0.54,0.9 0.42,1.53 -0.3,1.5 -1.48,0.18 -0.7,2.31 0.17,0.47 -0.09,0.23 0.24,0.41 0.35,0.19 0.18,-0.08 0.67,0.01zm7.52 -48.18l0.04 -0.14c-0.06,-0.24 -0.11,-0.26 -0.24,-0.53 -0.46,-0.96 0.15,-0.54 -0.78,-1.44 -0.05,-0.04 -0.17,-0.18 -0.21,-0.23 -0.31,-0.36 -0.46,-0.68 -0.74,-1.04 -0.26,-0.34 -0.66,-0.54 -0.78,-1 0.39,-0.1 0.25,-0.04 0.44,-0.33 -0.2,-0.29 -0.06,-0.23 -0.44,-0.33 0.11,-0.45 0.44,-0.69 0.44,-0.78 0,-0.44 -0.24,-0.72 -0.33,-1.11 0.41,-0.22 0.78,-0.49 0.78,-1.11 0,-0.54 -0.06,-0.42 -0.3,-0.81 -0.34,-0.55 -0.18,-1.37 -1.25,-0.85 0,-0.62 0.04,-0.9 0.22,-1.33l0.56 -0.89c0.51,0.12 0.53,0.3 0.78,0.66 0.37,-0.25 0.39,-0.22 0.89,-0.33 -0.01,-0.5 -0.11,-0.44 -0.11,-1 0,-0.14 0.33,-0.11 0.33,-1.33 0.34,-0.18 0.66,-0.47 1,-0.56 0,-0.57 -0.18,-0.62 -0.04,-1.03 0.08,-0.23 0.33,-0.49 0.4,-0.81 0.16,-0.79 -0.69,-0.63 -1.03,-1.27 0.29,-0.4 0.74,-0.4 1.11,-0.67 0.35,-0.25 0.4,-0.69 0.75,-1.03 0.98,-0.97 0.74,-1.18 1.03,-2.41l1.89 -0.33c0.62,0 0.76,0.39 1.44,0.44 0.07,0.32 0.15,0.68 0.22,1 0.3,-0.02 0.3,-0.05 0.56,-0.11l0.11 -2.44c0.42,0.01 0.93,0.27 1.37,0.33 12.93,-30.08 33.39,-55.41 59.72,-70.91 -34.66,17.24 -67.54,50.81 -82.21,99.29l0.13 0.28c0.27,0.54 0.51,0.35 0.72,0.83 0.19,0.43 0.1,0.76 0.38,1.07 0.4,0.45 0.47,0.45 0.13,1.09 0.91,0.08 0.44,0.57 0.91,1.09l0.76 1.13c0.22,0 0.57,-0.02 0.78,-0.01 0.55,0.05 0.51,0.3 0.87,0.69 0.26,0.28 0.09,-0.05 0.34,0.43 0.19,0 0.49,-0.02 0.67,0 0.62,0.07 0.06,-0.02 0.51,0.16 0.68,0.27 1.16,0.05 1.54,-0.56 0.81,-1.32 -0.39,-2.35 -0.39,-3.05 0,-0.5 0.21,-0.97 0.18,-1.2 -0.03,-0.24 -0.34,-0.53 -0.39,-1.03 -0.07,-0.68 0.16,-0.78 -0.26,-1.19 -0.3,-0.3 -0.53,-0.22 -0.53,-0.8 0,-0.86 0.31,-0.58 0.78,-0.77 0.3,-0.12 -0.1,-0.02 0.29,-0.16 0.45,-0.16 0.68,0.13 0.82,-0.41 0.42,0.11 0.32,0.21 0.66,0.44 -0.04,-0.53 -0.43,-0.8 -0.55,-1.33 0.62,0.14 1.06,0.06 1.22,0.67l0.06 -0.17c0.08,-0.21 -0.06,-0.46 0.37,-0.45 0.18,0 0.29,0.2 0.68,0.29 -0.26,-0.38 -0.73,-0.53 -0.78,-1.11 1.18,-0.28 0.99,-0.35 1.66,0.11 0.43,-0.1 0.85,-0.34 1.13,-0.65 0.43,-0.47 1.14,-0.63 1.69,-0.97zm103.65 84.33c0,0.82 0.27,1.13 -0.4,1.6 -1.18,0.84 -0.9,1.11 -0.83,1.95 -0.1,0.05 -0.22,0.09 -0.31,0.13 -0.2,0.1 -0.1,0.07 -0.29,0.16 -0.71,0.37 -0.62,-0.15 -2.18,0.59 0,1.84 -0.27,0.97 -0.91,1.87 -0.22,0.31 -0.26,0.67 -0.43,1.01 -0.48,0.92 -2.25,0.69 -3.01,1.32 -0.34,0.29 -0.53,1.79 -0.53,2.36 -0.64,-0.31 -1.38,-0.17 -2.11,0 -0.06,-0.72 -0.54,-0.83 -1.12,-0.01 -0.69,0.99 -0.42,1.21 -0.3,3.33 0.54,0.05 0.3,0.08 0.43,0.55 0.26,0.92 -0.02,-0.4 2.04,1.18 0.77,0.59 0.37,0.57 0.53,1.58 0.18,1.14 1.17,1.65 2.2,0.92 0.27,-0.19 0.49,-0.37 0.77,-0.56 0.45,1.95 1.56,0.78 1.56,0.78 0.37,-0.18 0.4,-0.06 0.82,-0.18 0.8,-0.23 0.25,-0.6 1.29,-0.6 0.25,0.65 -0.25,-0.25 0.78,0.45 0.37,-0.25 0.65,-0.56 1,-0.56 1.11,0 -0.52,2.55 1.87,0.65 1.03,-0.82 1.51,-0.46 2.08,-1.91 0.14,-0.36 0.37,-1.21 0.38,-1.62 -0.24,-0.16 -0.33,-0.26 -0.67,-0.34 0.1,-1.27 2.11,-2.25 2.11,-2.89 0,-0.47 -0.53,-0.29 -0.39,-1.16 0.43,-2.64 1.76,-1.07 2.73,-2.51l-1.96 -0.82c-0.76,-0.49 -1.08,-1.58 -1.15,-1.74 -0.61,-0.14 -1.06,-0.02 -1.11,-0.66 0.59,-0.14 0.81,0.12 1.22,-0.45 -0.22,-0.82 -0.81,-0.2 -0.89,-1.11 0.87,-0.2 1.57,-0.01 1.78,-0.89 -0.46,-0.3 -0.44,-0.14 -0.66,-0.44 0.35,-0.48 0.75,-0.31 1.38,-0.5 0.31,-0.1 0.44,-0.2 0.47,-0.54 0.12,-0.96 -1.7,-0.31 -2.41,-0.51 -0.46,-0.12 -0.32,-0.22 -0.89,-0.23 0,-1.6 -1.09,-0.78 -1.51,-0.84 -0.2,-0.03 -0.21,-0.08 -0.4,-0.12 -0.24,-0.05 -0.4,-0.03 -0.64,-0.03 -0.1,0.37 -0.33,0.45 -0.33,0.78zm12.66 6.55c-1.41,0 -1.5,-0.8 -2.06,0.5 -0.39,0.91 -1.08,0.24 -1.51,0.93 -0.53,0.85 0.15,1.32 -0.1,2.67 -0.18,0.96 -0.55,0.67 -0.73,1.28 -0.18,0.6 0.07,1.31 -0.07,1.93 -0.11,0.5 -0.53,0.63 -0.53,1.58 0,0.29 0.18,0.29 0.22,0.78 0.67,-0.02 0.58,-0.33 1.22,-0.33 0.23,0 0.56,1.66 0.56,1.78 0,1.22 -1.27,1.78 1,1.78 0.55,0 1,-0.45 1,-1 0,-0.61 -0.38,-0.58 -0.4,-1.01 -0.03,-0.56 0.39,-0.27 0.01,-1.02 -0.25,-0.49 -0.3,-0.51 -0.3,-1.06 -0.01,-0.92 -0.24,-0.45 -0.3,-1.12 0.57,-0.15 0.69,-0.54 1.55,-0.56 0,1.22 -0.33,0.4 -0.33,1.66 0.36,0.01 0.58,0.07 1,0.11 0.58,0.06 0.63,0.09 0.59,0.47 -0.04,0.43 -0.23,0.62 -0.01,0.83 0.18,0.18 0.62,0.23 0.86,0.13 0.53,-0.14 0.31,-0.5 0.55,-1 0.9,0 1.26,0.11 1.44,-0.67 -0.33,-0.18 -0.88,-0.27 -1.13,-0.53 -0.32,-0.33 -0.47,-0.81 -0.52,-1.25 -0.12,-0.94 -0.95,-1.47 -1.89,-1.54 0.07,-0.27 0.13,-0.31 0.53,-0.57 0.56,-0.37 1.46,-0.47 1.58,-1.87 -2.04,0 -0.27,0.33 -2.55,0.33 -0.65,1.22 -0.51,1.57 -2,1.22 -0.11,-0.22 -0.44,-1.37 -0.44,-1.78 0,-1.39 1.88,-1.21 2.37,-1.29 1.3,-0.21 1.36,-0.85 2.85,-0.93 0.62,-0.03 1.02,-0.21 1.48,-0.3 0.46,-0.09 0.32,0.04 0.7,-0.19 0.06,-0.04 0.5,-0.37 0.57,-0.43 0.62,-0.53 0.83,-1.82 0.92,-2.86 -1.04,0.24 -0.74,0.36 -1.2,1.13 -0.33,0.56 -0.7,0.76 -1.22,1.11 -1.43,0.96 -1.79,0.32 -2.83,0.72 -0.37,0.14 -0.33,0.37 -0.85,0.37zm3.33 -16.65c0,0.48 0.18,0.34 0.22,0.89 -0.98,0.47 -1.13,-0.21 -1.23,1.1 -0.09,1.38 -0.94,-0.03 -1.21,1 -0,-0 -0.66,-1.09 -1.5,0.06 -0.42,0.58 -0.34,0.91 -0.45,1.1 -0.18,0.3 -1.49,-0.15 -1.49,1.73 0,0.34 0.1,0.66 0.44,0.66 0.76,0 0.27,-1.15 1.16,-1.62 0.55,-0.29 0.74,0.04 1.06,-0.38 0.33,-0.43 0.06,-0.78 0.88,-0.78 0.93,0 0.55,1.48 0.55,1.55 0,0.36 0.93,1.11 1.56,1.11 0.48,0 0.48,-0.34 0.78,-0.55 0.54,0.4 -0.18,0.55 0.89,0.55 0.16,-0.68 0.53,-0.96 -0.19,-1.81 -0.21,-0.25 -0.33,-0.46 -0.48,-0.74 0.33,-0.38 0.24,-0.44 0.67,-0.55 0.34,1.46 1.66,0.85 0.84,-1.29 -0.22,-0.57 -0.38,-0.29 -0.58,-0.98 -0.29,-0.99 0.12,-1.62 -1.92,-1.62l0 0.56zm-12.55 -8.88c0,0.51 -0.67,0.32 -0.67,0.67 0,0.67 0.3,0.48 0.63,0.81 0.26,0.25 0.32,0.74 0.47,1.08 0.1,0.21 1.1,1.55 1.45,1.55 2.27,0 0.62,-0.46 1.77,-0.55 0,-1.21 -0.71,-1.63 -1.01,-2.56 -0.2,-0.62 -0.1,-0.04 0.37,-1.2l0.48 -0.85c0.2,-0.28 0.16,0.28 0.16,-0.5 0,-0.89 -0.45,-0.38 -0.7,-1.63 -0.04,-0.22 -0.09,-0.37 -0.19,-0.59 -0.84,-0.2 -1.34,-0.11 -2.33,-0.11 -0.54,0 -0.42,1.2 -0.45,1.78 -0.03,0.51 -0.14,0.46 -0.1,0.98 0.03,0.37 0.1,0.57 0.1,1.13zm7.77 -61.4c-0.53,0 -0.8,0.12 -1.22,0.22 0.02,0.68 0.12,0.63 0.55,0.9 0.74,0.46 1.05,1.09 1.11,2 0.07,1.06 0.26,0.4 0.45,1.11 -0.32,0.15 -0.46,0.07 -0.78,0.22 -0.08,0.33 -0.11,0.34 -0.11,0.78 0.48,0.04 0.2,-0.02 0.55,0.22l-0.13 1.11c0.45,0.04 0.38,0.11 0.91,0.11 0.02,0.7 0.08,0.23 0.22,0.78 0.45,-0.04 0.37,-0.14 0.53,-0.46 0.15,-0.32 0.27,-0.4 0.35,-0.76 -0.5,-0.24 -0.64,-0.23 -1.22,-0.23 0,-0.94 -0.37,-0.49 0.06,-0.72 0.23,-0.13 0.33,0 0.57,-0.09 0.58,-0.22 0.01,-0.41 0.55,-0.79 0.42,-0.3 0.87,0.05 1.44,-0.33 0.68,-0.47 -0.06,-0.86 -0.06,-1.73 0,-0.74 1.22,-0.58 1.22,-2 0,-1 -1.11,0.37 -1.11,-1.44 -0.99,0.08 -0.35,1.03 -1.51,1.26 -0.23,0.05 -1.05,0.14 -1.3,0.16 -0.76,0.08 -0.56,-0.31 -1.07,-0.31zm-10.55 -11.88c0,1 0.06,0.26 0.15,0.72 0.14,0.71 -0.39,0.34 0.66,1.13 0.36,0.27 0.85,1.24 1.16,1.5 0.75,0.63 0.84,-0.01 1.55,1 0.46,0.65 0.47,1 1.11,1.56 0.53,0.46 0.92,0.64 1.25,1.3 0.71,1.43 1,0.71 1.27,1.39 0.4,1 -0.28,0.15 0.87,1.79 0.31,0.44 0.27,0.65 0.46,0.88 0.14,0.18 0.73,0.56 0.73,0.15 0,-0.86 -0.49,-1.05 -0.55,-1.78l0.66 -0.13c-0.02,-1.43 -0.93,-0.01 -2.59,-2.83 -0.31,-0.52 -0.3,-0.92 -0.52,-1.37 0.5,-0.04 0.56,-0.13 0.78,-0.44 -0.24,-0.88 -2.41,-1.59 -3.37,-2.74 -1.07,-1.29 -1.15,-0.96 -1.6,-1.51 -0.29,-0.35 -0.4,-0.5 -0.72,-0.83 -0.46,-0.47 -0.35,-0.36 -1.2,-0.36 -0.06,0.25 -0.11,0.26 -0.11,0.55zm7.21 40.08c0.98,0 0.86,-0.27 1.33,-0.44 0.31,0.66 0.09,0.74 0.19,1.47 0.16,1.2 0.5,0.4 0.59,1.42l0.33 0c0.06,-0.26 0.1,-0.33 0.11,-0.67 0.51,0.34 0.14,0.42 0.67,0.56 0.94,-0.63 0.11,-1.9 0.11,-2.22 0,-0.76 0.76,-0.96 -0.6,-1.96 -0.34,-0.25 -0.3,-0.22 -0.65,-0.19 -2.07,0.16 -1.51,0.11 -1.8,1.21 -0.08,0.3 -0.2,0.49 -0.28,0.83zm-25.31 34.86c0.27,0.06 1.18,0.21 1.46,0.22 0.69,0.02 1.5,-0.95 1.83,-1.49 0.14,-0.24 0.15,-0.26 0.3,-0.47 0.47,-0.65 0.45,-1.26 -0.37,-1.26 -0.4,0 -0.66,0.25 -1.23,0.33 -0.59,0.07 -0.77,0.07 -1.19,0.36 -0.4,0.28 -0.54,0.38 -0.68,0.88 -0.13,0.47 -0.13,0.84 -0.13,1.43zm19.32 -11.44c0.19,-0.79 -0.22,-1.21 -0.22,-1.89 0,-1.02 0.44,-0.77 0.44,-3 0,-0.57 -0.33,-0.66 -0.67,-0.89 -0.87,0.59 -0.65,0.89 -0.99,2.34 -0.14,0.63 -0.7,1.7 -0.35,2.32 0.01,0.02 0.03,0.05 0.05,0.06l0.21 0.23c0.54,0.61 0.38,0.81 1.52,0.81zm8.88 53.29c1.87,0 1.08,-0.22 1.99,-0.56 0.59,-0.22 1.43,0.37 3.04,-0.4 0.48,-0.23 0.91,-0.34 0.96,-0.93 -1.39,0 -0.57,-0.03 -1.71,0.18 -1.31,0.24 -1.7,-0.12 -2.83,0.6 -0.13,0.09 -0.23,0.18 -0.33,0.23 -0.56,0.27 -1.04,-0.09 -1.12,0.88zm1.11 -78.72c0.88,0 0.89,-0.17 0.89,-1.56 0.53,-0.12 0.96,-0.6 1.22,-1 -0.41,-0.77 -0.51,-0.78 -1.11,-0.78 -0.61,0 -0.31,0.58 -0.83,1.17 -0.54,0.61 -0.92,0.57 -0.78,1.32 0.07,0.39 0.23,0.84 0.62,0.84zm-2.44 80.6l0 0.44 2.11 0.1c0.55,0.01 1.66,0.37 1.66,-0.33 0,-1.14 -3.77,-1.42 -3.77,-0.22zm3.11 -40.86c0,0.46 0.77,0.43 1.18,0.82 0.27,0.25 0.64,0.68 1.37,0.74 0,-1.2 0.14,-1.17 -0.48,-1.96 -0.36,-0.46 -0.32,-0.37 -1.18,-0.37 -0.48,0 -0.89,0.34 -0.89,0.78zm-3.55 4.67c0.68,0 0.71,-0.07 1.23,-0.88 0.86,-1.36 0.81,-1.06 0.33,-1.79 -0.35,0.03 -0.64,0.15 -0.93,0.19 -1.09,0.15 -0.7,-0.1 -0.54,1.4 0.06,0.54 -0.09,0.49 -0.09,1.08zm1.89 0c0,0.38 -0.02,0.1 -0.21,0.34 -0.02,0.02 -0.04,0.04 -0.06,0.06 -0.19,0.24 -0.25,0.32 -0.29,0.71 0.96,0.08 0.12,0.67 1.56,0.67 0.19,-0.83 -0.22,-0.67 -0.22,-1.33 0,-0.48 0.82,-1.97 -0.44,-2 -0.14,0.51 -0.21,0.2 -0.37,0.63 -0.14,0.36 0.04,0.51 0.04,0.92zm-5.77 -4.44c0.12,1.45 0.87,0.31 1.41,1.59 0.39,0.93 0.81,0.48 0.81,0.19 0,-2.48 -1.07,-1.78 -2.22,-1.78zm4.89 -2.22c-0.06,0.69 -0.31,0.47 0.13,1.21 0.1,0.17 0.19,0.34 0.32,0.46 0.37,0.35 0.99,0.33 1.55,0.33 0,-1.14 -0.43,-0.49 -0.76,-1.12 -0.19,-0.37 0,-1.35 -1.24,-0.87zm-2.11 40.86l-1.33 0c0.02,0.74 0.24,0.53 0.92,0.75 1.12,0.36 1.08,0.46 1.97,0.25 0.12,-1.39 0.34,-1 -1.56,-1zm5.33 -36.97c0,0.3 0.05,0.31 0.11,0.56 0.52,0.25 0.57,-0.12 0.82,0.4 0.22,0.46 -0.02,0.82 0.63,0.82 0.34,0 0.45,-0.33 0.45,-0.67 0,-0.56 -2,-2.31 -2,-1.11zm-8.22 38.75l0 0.44c0.49,0 0.83,-0.1 1.21,-0.24 0.85,-0.3 1.02,-0.15 1.02,-0.54 0,-0.51 -1.17,-0.5 -1.78,-0.56 -0.21,0.31 -0.45,0.38 -0.45,0.89zm-2.22 0.55c2.13,0 2.01,-1.22 1.44,-1.22 -0.93,0 -1.44,0.23 -1.44,1.22zm-2.44 -0.55c0.19,0.36 0.13,0.47 1.39,0.27 0.6,-0.09 0.93,-0.06 0.83,-0.47 -0.13,-0.47 -1.38,-0.26 -1.74,-0.12 -0.27,0.11 -0.31,0.1 -0.47,0.31zm10.1 -39.86l0 0.33c1.24,0.65 0.78,0.63 1.55,0.44 0,-0.63 0.12,-0.89 -0.45,-0.99 -0.01,-0 -0.72,-0.08 -0.72,-0.08 -0.28,-0.01 -0.39,-0.02 -0.39,0.3zm2.44 4.22c0.37,0 0.51,0.05 0.81,-0.08 0,0 0.26,-0.17 0.26,-0.18 0.2,-0.23 0.15,0.13 0.15,-0.29 0,-0.73 -1.13,-0.55 -1.22,0.55zm-4.77 -6.99c0.12,0.45 0.83,0.73 1.33,0.78 0,-0.92 -0.04,-0.89 -1,-0.89 -0.13,0 -0.31,0.08 -0.33,0.11zm4.22 6c0,0.2 -0.01,0.01 0.11,0.22 0.33,-0.17 0.2,-0.01 0.37,-0.29 0.08,-0.13 0.15,-0.44 0.18,-0.59l-0.43 -0.35c-0.13,0.24 -0.24,0.67 -0.24,1.02z"/>
   <path class="fil5" d="M668.29 272.14c3.26,0.71 3.99,0.99 2.97,1.39 -1.03,0.4 -2.05,0.24 -2.77,0.21 -0.71,-0.03 -1.25,0.23 -0.92,-0.39 0.33,-0.62 0.72,-1.21 0.72,-1.21z"/>
   <path class="fil5" d="M685.62 345.01c0.93,-0.46 0.76,-0.53 2.03,-0.48 0.56,0.02 1.58,1.11 0.7,1.52 -0.34,0.16 -1.44,0.01 -1.84,-0 -1.49,-0.06 -0.87,-0.96 -0.84,-0.96l-0.05 -0.07z"/>
   <g>
    <path class="fil5" d="M704.6 362.48c-0.11,-0.77 -0.86,-2.05 0.95,-1.63 0.38,0.09 1.85,1.13 2.34,1.17 0.4,0.03 0.46,0.15 1.19,0.15 0.73,0 1.2,0.04 1.89,-0.12 0.63,-0.15 2.05,-0.08 2.03,0.86 -0.02,0.72 0.16,1.57 -0.24,2.2 -0.22,0.35 -0.29,0.91 -0.77,1.44 -0.01,0.01 -1.21,1.71 -1.28,1.82 -0.2,0.31 -2.53,2.31 -2.96,2 -0.01,-0.01 -1.48,-1.87 -1.69,-2.1 -0.44,-0.47 -0.12,-3.15 -0.45,-3.86 -0.46,-0.99 -0.28,-0.99 -1.02,-1.94zm0.03 0.06c-0,-0 -0.07,-0.16 -0.06,-0.12l0.06 0.12z"/>
   </g>
  </g>
  <rect class="fil2" y="-0" width="1180.48" height="823.96"/>
 </g>
</svg>
